# Blender v3.2.1 OBJ File: ''
# www.blender.org
mtllib dice.mtl
o Cube
v 1.509376 1.625021 -2.000000
v 1.516555 2.000000 -1.618323
v 2.000000 1.514978 -1.619799
v 1.516555 -2.000000 -1.618323
v 1.625021 -1.509376 -2.000000
v 2.000000 -1.619799 -1.514978
v 2.000000 1.619799 1.514978
v 1.618323 2.000000 1.516555
v 1.509376 1.625021 2.000000
v 2.000000 -1.514978 1.619799
v 1.625021 -1.509376 2.000000
v 1.618323 -2.000000 1.516555
v -1.625021 1.509376 -2.000000
v -2.000000 1.514978 -1.619799
v -1.618323 2.000000 -1.516555
v -2.000000 -1.619799 -1.514978
v -1.509376 -1.625021 -2.000000
v -1.618323 -2.000000 -1.516555
v -2.000000 1.619799 1.514978
v -1.625021 1.509376 2.000000
v -1.516555 2.000000 1.618323
v -1.516555 -2.000000 1.618323
v -1.509376 -1.625021 2.000000
v -2.000000 -1.514978 1.619799
vt 0.151983 0.526983
vt 0.348017 0.526983
vt 0.348016 0.723016
vt 0.151983 0.723017
vt 0.401983 0.026983
vt 0.598017 0.026983
vt 0.598017 0.223017
vt 0.401983 0.223017
vt 0.401983 0.776983
vt 0.598017 0.776984
vt 0.598017 0.973016
vt 0.401983 0.973017
vt 0.651983 0.526983
vt 0.848017 0.526983
vt 0.848017 0.723016
vt 0.651983 0.723017
vt 0.401983 0.526983
vt 0.598017 0.526983
vt 0.598017 0.723016
vt 0.401983 0.723017
vt 0.598017 0.473017
vt 0.625000 0.473017
vt 0.598017 0.500000
vt 0.348017 0.500000
vt 0.375000 0.526983
vt 0.598017 0.750000
vt 0.625000 0.776983
vt 0.375000 0.723017
vt 0.348017 0.750000
vt 0.598017 0.250000
vt 0.625000 0.223017
vt 0.125000 0.526983
vt 0.151983 0.500000
vt 0.598017 0.000000
vt 0.625000 0.026983
vt 0.151983 0.750000
vt 0.125000 0.723017
vt 0.401983 0.473017
vt 0.401983 0.000000
vt 0.598017 0.276983
vt 0.401983 0.276983
vt 0.625000 0.973017
vt 0.625000 0.276983
vn 0.0000 -1.0000 0.0000
vn -1.0000 0.0000 0.0000
vn 0.0000 0.0000 1.0000
vn 0.0000 1.0000 0.0000
vn 1.0000 0.0000 0.0000
vn 0.5772 0.5771 -0.5778
vn 0.5773 -0.5770 -0.5777
vn 0.5773 0.5771 0.5777
vn 0.5772 -0.5772 0.5777
vn -0.5772 0.5772 -0.5777
vn -0.5773 -0.5771 -0.5777
vn -0.5773 0.5770 0.5777
vn -0.5772 -0.5771 0.5778
vn -0.7069 -0.7069 0.0233
vn 0.0016 -0.7071 -0.7071
vn 0.7071 0.0012 -0.7071
vn -0.7071 -0.0012 0.7071
vn 0.7069 0.0249 0.7069
vn -0.7069 -0.0249 -0.7069
vn -0.0016 0.7071 0.7071
vn 0.7069 0.7069 -0.0233
vn 0.0245 -0.7069 0.7069
vn -0.7071 0.7071 -0.0003
vn -0.0245 0.7069 -0.7069
vn 0.7071 -0.7071 0.0003
vn 0.0000 0.0000 -1.0000
usemtl Material
s off
f 18/1/1 4/2/1 12/3/1 22/4/1
f 24/5/2 19/6/2 14/7/2 16/8/2
f 11/9/3 9/10/3 20/11/3 23/12/3
f 2/13/4 15/14/4 21/15/4 8/16/4
f 6/17/5 3/18/5 7/19/5 10/20/5
f 1/21/6 2/22/6 3/23/6
f 4/2/7 5/24/7 6/25/7
f 7/26/8 8/27/8 9/10/8
f 10/28/9 11/29/9 12/3/9
f 13/30/10 14/7/10 15/31/10
f 16/32/11 17/33/11 18/1/11
f 19/6/12 20/34/12 21/35/12
f 22/4/13 23/36/13 24/37/13
f 18/1/14 22/4/14 24/37/14 16/32/14
f 4/2/15 18/1/15 17/33/15 5/24/15
f 3/18/16 6/17/16 5/38/16 1/21/16
f 23/39/17 20/34/17 19/6/17 24/5/17
f 9/10/18 11/9/18 10/20/18 7/19/18
f 13/40/19 17/41/19 16/8/19 14/7/19
f 8/27/20 21/42/20 20/11/20 9/10/20
f 2/13/21 8/16/21 7/19/21 3/18/21
f 22/4/22 12/3/22 11/29/22 23/36/22
f 21/35/23 15/31/23 14/7/23 19/6/23
f 15/43/24 2/22/24 1/21/24 13/40/24
f 12/3/25 4/2/25 6/17/25 10/20/25
f 17/41/26 13/40/26 1/21/26 5/38/26
